<svg width="452" height="51" viewBox="0 0 452 51" fill="none" xmlns="http://www.w3.org/2000/svg">
<g clip-path="url(#clip0_1_241)">
<path d="M25 0.194947C17.1042 0.194947 10.0646 3.85536 5.48335 9.57203L13.7188 23.8387C14.05 21.0795 15.3808 18.5374 17.4596 16.6932C19.5384 14.8489 22.221 13.8304 25 13.8304H47.2729C45.1779 9.72543 41.989 6.27949 38.0584 3.87321C34.1279 1.46693 29.6087 0.193968 25 0.194947ZM4.02293 11.5908C1.3902 15.639 -0.00759597 20.3659 1.56628e-05 25.1949C1.56628e-05 37.7199 9.20835 48.0929 21.2271 49.9116L29.4625 35.647C26.9078 36.7395 24.0411 36.8573 21.4053 35.9781C18.7696 35.0989 16.5477 33.2836 15.1604 30.8762L4.02293 11.5908ZM31.8188 16.1033C34.0439 17.7681 35.5806 20.1917 36.1374 22.9144C36.6942 25.637 36.2324 28.4693 34.8396 30.8741L34.8438 30.8762H34.8396L23.7063 50.1616C24.1354 50.1824 24.5667 50.1949 25 50.1949C38.8063 50.1949 50 39.0012 50 25.1949C50 21.9866 49.3958 18.922 48.2958 16.1033H31.8188ZM25 34.2866C22.5888 34.2866 20.2763 33.3287 18.5712 31.6237C16.8662 29.9187 15.9083 27.6062 15.9083 25.1949C15.9083 22.7837 16.8662 20.4712 18.5712 18.7662C20.2763 17.0611 22.5888 16.1033 25 16.1033C27.4113 16.1033 29.7238 17.0611 31.4288 18.7662C33.1338 20.4712 34.0917 22.7837 34.0917 25.1949C34.0917 27.6062 33.1338 29.9187 31.4288 31.6237C29.7238 33.3287 27.4113 34.2866 25 34.2866Z" fill="#4A86FF"/>
</g>
<g clip-path="url(#clip1_1_241)">
<path d="M128.027 36.6315C126.877 39.1777 126.327 40.3161 124.85 42.5661C122.787 45.7084 119.873 49.6296 116.271 49.6565C113.067 49.6834 112.24 47.5661 107.892 47.6007C103.544 47.6219 102.638 49.695 99.4308 49.6623C95.8288 49.6296 93.0712 46.0969 91.0058 42.9604C85.2308 34.1623 84.6212 23.8507 88.1904 18.3642C90.7154 14.4738 94.7115 12.1892 98.4635 12.1892C102.285 12.1892 104.687 14.2892 107.846 14.2892C110.912 14.2892 112.779 12.1834 117.198 12.1834C120.54 12.1834 124.075 14.0046 126.6 17.1469C118.338 21.6738 119.681 33.4738 128.027 36.6315ZM113.844 8.67189C115.452 6.60843 116.671 3.69689 116.229 0.727661C113.606 0.906507 110.538 2.58151 108.746 4.75074C107.123 6.72574 105.777 9.66035 106.302 12.4988C109.163 12.5911 112.125 10.8854 113.844 8.67189Z" fill="#EF3959"/>
</g>
<path d="M205.042 36.8616C204.833 36.445 204.625 36.0283 204.625 35.6116C204.625 34.7783 204.208 34.1533 203.583 33.5283C203.375 33.32 202.958 33.1116 202.75 33.1116C204 29.3616 202.125 25.6116 200.042 22.9033C198.375 20.4033 195.875 18.5283 196.083 15.195C196.083 11.2366 196.5 3.94496 189.208 4.56996C181.708 4.98662 183.792 12.695 183.583 15.4033C183.583 17.695 182.542 19.9866 180.875 21.8616C180.458 22.2783 180.042 22.9033 179.833 23.32C177.75 25.82 176.708 29.1533 176.708 32.2783C176.292 32.695 175.875 33.1116 175.667 33.5283C175.458 33.7366 175.25 33.945 175.25 34.1533C175.042 34.3616 174.625 34.57 174.208 34.7783C173.375 34.9866 172.75 35.4033 172.333 36.2366C172.125 36.8616 171.917 37.695 172.125 38.5283C172.333 38.945 172.333 39.3616 172.125 39.9866C171.708 40.82 171.708 41.8616 172.125 42.9033C172.75 43.7366 173.792 43.945 175.25 44.1533C176.292 44.1533 177.542 44.57 178.583 44.9866C179.625 45.6116 180.875 46.0283 182.125 46.0283C182.75 46.0283 183.583 45.8199 184.208 45.6116C184.833 45.1949 185.25 44.7783 185.458 44.1533C186.292 44.1533 187.542 43.7366 189 43.7366C190.25 43.7366 191.5 44.1533 193.167 43.945C193.167 44.1533 193.167 44.3616 193.375 44.5699C193.792 45.6116 194.833 46.4449 196.083 46.6533H196.5C198.167 46.4449 199.833 45.6116 200.875 44.3616C201.708 43.5283 202.75 42.9033 203.792 42.4866C205.042 41.8616 205.875 41.445 206.083 40.4033C206.292 38.945 205.875 38.1116 205.042 36.8616ZM190.667 10.195C191.917 10.4033 192.958 11.445 192.75 12.695C192.75 13.32 192.542 13.945 192.125 14.57H191.917C191.5 14.3616 191.292 14.3616 191.083 14.1533C191.292 13.945 191.292 13.5283 191.5 13.1116C191.5 12.2783 191.083 11.6533 190.667 11.6533C190.042 11.6533 189.625 12.2783 189.625 13.1116V13.32C189.417 13.1116 189 13.1116 188.792 12.9033V12.695C188.583 11.6533 189.417 10.4033 190.667 10.195ZM190.042 14.3616C190.25 14.57 190.667 14.7783 190.875 14.7783C191.083 14.7783 191.5 14.9866 191.708 15.195C192.125 15.4033 192.542 15.6116 192.542 16.2366C192.542 16.8616 191.917 17.4866 190.667 17.9033C190.25 18.1116 190.042 18.1116 189.833 18.32C189.208 18.7366 188.583 18.945 187.75 18.945C187.125 18.945 186.5 18.5283 186.083 18.1116C185.875 17.9033 185.667 17.695 185.25 17.4866C185.042 17.2783 184.625 16.8616 184.417 16.2366C184.417 16.0283 184.625 15.82 184.833 15.6116C185.458 15.195 185.667 14.9866 185.875 14.7783L186.083 14.57C186.5 13.945 187.333 13.5283 188.167 13.5283C188.792 13.7366 189.417 13.945 190.042 14.3616ZM185.667 10.6116C186.5 10.6116 187.125 11.445 187.333 12.9033V13.32C187.125 13.32 186.708 13.5283 186.5 13.7366V13.32C186.5 12.695 186.083 12.07 185.667 12.2783C185.25 12.2783 185.042 12.9033 185.042 13.5283C185.042 13.945 185.25 14.1533 185.458 14.3616C185.458 14.3616 185.25 14.57 185.042 14.57C184.625 14.1533 184.208 13.5283 184.208 12.9033C184.208 11.6533 184.833 10.6116 185.667 10.6116ZM183.583 44.1533C182.125 44.7783 180.25 44.57 179 43.7366C177.75 43.1116 176.708 42.9033 175.25 42.9033C174.208 42.695 173.167 42.695 172.958 42.2783C172.75 41.8616 172.75 41.2366 173.167 40.195C173.375 39.57 173.375 38.945 173.167 38.32C172.958 37.695 172.958 37.2783 173.167 36.6533C173.375 36.0283 173.792 35.82 174.417 35.6116C175.042 35.4033 175.458 35.195 175.875 34.7783C176.083 34.57 176.292 34.3616 176.5 33.945C177.125 33.1116 177.542 32.695 178.167 32.695C179.417 32.9033 180.458 34.7783 181.292 36.6533C181.708 37.2783 182.125 38.1116 182.75 38.7366C183.583 39.7783 184.625 41.2366 184.625 42.07C184.625 43.1116 184.208 43.7366 183.583 44.1533ZM193.792 39.57C193.792 39.7783 193.792 39.7783 193.583 39.9866C191.083 41.8616 187.75 42.07 185.042 40.6116L183.792 38.7366C185.667 38.5283 185.25 36.0283 181.292 33.5283C177.125 30.82 180.042 25.82 181.5 23.5283C181.708 23.32 181.708 23.5283 180.875 25.195C180.25 26.445 179 29.57 180.667 31.8616C180.667 30.195 181.083 28.5283 181.708 26.8616C183.167 24.1533 184.208 21.0283 184.833 17.9033C185.042 18.1116 185.042 18.1116 185.25 18.1116C185.458 18.32 185.667 18.5283 185.875 18.5283C186.292 19.1533 187.125 19.3616 187.75 19.3616H187.958C188.792 19.3616 189.625 19.1533 190.25 18.5283C190.458 18.32 190.667 18.1116 191.083 18.1116C191.708 17.9033 192.333 17.4866 192.958 16.8616C193.792 19.57 194.625 22.07 195.875 24.3616C196.708 26.0283 197.333 27.695 197.75 29.57C198.375 29.57 199.208 29.7783 199.833 30.195C201.5 31.0283 202.125 31.6533 201.917 32.695H201.5C201.5 32.07 201.083 31.445 199.625 30.82C198.167 30.195 196.917 30.195 196.5 31.6533C196.292 31.6533 196.083 31.8616 195.875 31.8616C194.208 32.695 194.208 34.9866 194 37.2783C194.208 38.1116 194 38.7366 193.792 39.57ZM203.375 40.82C202.125 41.2366 201.083 42.07 200.25 43.1116C199.417 44.3616 197.958 45.195 196.292 44.9866C195.458 44.9866 194.625 44.3616 194.417 43.5283C194.208 42.2783 194.208 41.0283 194.833 39.7783C195.042 38.945 195.25 38.32 195.458 37.4866C195.667 34.9866 195.667 33.5283 196.708 32.9033C196.708 33.945 197.333 34.57 198.167 34.9866C199.208 34.9866 200.25 34.7783 201.083 33.945H201.5C202.125 33.945 202.542 33.945 202.958 34.3616C203.375 34.7783 203.583 35.4033 203.583 35.82C203.583 36.445 204 37.07 204.208 37.695C205.25 38.7366 205.25 39.3616 205.25 39.57C205.042 39.9866 204.208 40.4033 203.375 40.82ZM184.625 15.82C184.417 15.82 184.417 15.82 184.417 16.0283C184.417 16.0283 184.417 16.2366 184.625 16.2366C184.833 16.2366 184.833 16.445 184.833 16.445C185.458 17.2783 186.5 17.695 187.75 17.9033C188.792 17.695 189.833 17.4866 190.875 16.6533L192.125 16.0283C192.333 16.0283 192.333 15.82 192.333 15.82C192.333 15.6116 192.333 15.6116 192.125 15.6116C191.708 15.82 191.083 16.0283 190.667 16.2366C189.833 16.8616 188.792 17.2783 187.75 17.2783C186.708 17.2783 185.875 16.6533 185.25 16.0283C185.042 16.0283 184.833 15.82 184.625 15.82Z" fill="#0D224E"/>
<g clip-path="url(#clip2_1_241)">
<path d="M260.932 10.7499C261.245 10.7499 261.545 10.6256 261.767 10.4043C261.988 10.1831 262.112 9.88293 262.112 9.56998C262.112 9.25704 261.988 8.95691 261.767 8.73562C261.545 8.51434 261.245 8.39002 260.932 8.39002H260.911C260.762 8.38992 260.614 8.42064 260.477 8.48025C260.34 8.53986 260.217 8.62708 260.115 8.73645C259.901 8.96102 259.782 9.25954 259.782 9.56998C259.782 9.88043 259.901 10.1789 260.115 10.4035C260.315 10.6177 260.598 10.752 260.913 10.752H260.936H260.934L260.932 10.7499ZM273.712 10.7499H273.733C274.048 10.7499 274.332 10.6156 274.529 10.4035C274.743 10.1789 274.863 9.88043 274.863 9.56998C274.863 9.25954 274.743 8.96102 274.529 8.73645C274.427 8.62653 274.304 8.53884 274.167 8.47886C274.029 8.41889 273.881 8.38793 273.731 8.38792H273.708H273.71C273.397 8.38792 273.097 8.51224 272.876 8.73352C272.655 8.95481 272.53 9.25494 272.53 9.56788C272.53 9.88083 272.655 10.181 272.876 10.4022C273.097 10.6235 273.397 10.7478 273.71 10.7478L273.712 10.7499ZM249.124 16.3222C250.827 16.3306 252.206 17.708 252.213 19.4107V32.4911C252.213 33.3309 251.87 34.0931 251.318 34.6432C251.042 34.9311 250.711 35.1601 250.344 35.3164C249.977 35.4726 249.582 35.5529 249.183 35.5523H249.118H249.122H249.105C248.282 35.5523 247.493 35.2253 246.911 34.6434C246.329 34.0614 246.002 33.2721 246.002 32.4491V19.4107V19.3666C246.002 18.5268 246.351 17.7688 246.911 17.2272C247.457 16.6687 248.219 16.3222 249.063 16.3222H249.124H249.122H249.124ZM281.223 16.8975V37.127C281.223 38.0277 280.851 38.8444 280.253 39.4281C279.956 39.7353 279.601 39.9795 279.208 40.1462C278.815 40.3128 278.393 40.3985 277.966 40.3981H277.918H277.92H275.648V47.2721C275.648 48.0996 275.319 48.8932 274.734 49.4783C274.149 50.0634 273.356 50.3921 272.528 50.3921C271.701 50.3921 270.907 50.0634 270.322 49.4783C269.737 48.8932 269.408 48.0996 269.408 47.2721V40.3981H265.23V47.2889C265.23 49.0022 263.84 50.3921 262.127 50.3921H262.066C261.226 50.3921 260.468 50.0436 259.926 49.483C259.639 49.203 259.41 48.8681 259.254 48.4981C259.097 48.128 259.017 47.7305 259.017 47.3288V47.27V47.2721L258.988 40.3981H256.729C254.902 40.3981 253.42 38.9158 253.42 37.0892V37.0661V37.0682V16.8996L281.223 16.8975ZM274.197 4.63597C276.285 5.69351 278.06 7.27865 279.346 9.23405L279.377 9.28444C280.593 11.1027 281.315 13.3408 281.315 15.7448V15.812V15.8078H253.302V15.7427C253.302 13.3366 254.027 11.1006 255.268 9.23825L255.24 9.28024C256.517 7.31985 258.287 5.72921 260.372 4.66746L260.447 4.63177L258.297 0.663564C258.261 0.616239 258.235 0.561336 258.223 0.502905C258.211 0.444475 258.212 0.38401 258.226 0.325971C258.24 0.267932 258.267 0.213802 258.305 0.167575C258.342 0.121348 258.39 0.0842043 258.444 0.0588847H258.446C258.497 0.026722 258.554 0.00574662 258.613 -0.00263283C258.672 -0.0110123 258.733 -0.00660182 258.79 0.0103024C258.848 0.0272066 258.901 0.0562132 258.946 0.0953741C258.992 0.134535 259.028 0.182944 259.053 0.237349L259.055 0.239449L261.239 4.23705C263.032 3.43291 265.123 2.9647 267.325 2.9647C269.528 2.9647 271.619 3.43291 273.509 4.27484L273.412 4.23705L275.596 0.239449C275.621 0.184564 275.657 0.135668 275.702 0.0960781C275.748 0.0564886 275.801 0.0271333 275.859 0.0100052C275.917 -0.00712294 275.977 -0.0116228 276.037 -0.00318881C276.097 0.00524515 276.154 0.0264154 276.205 0.0588847H276.202C276.257 0.0837317 276.306 0.12064 276.344 0.166849C276.383 0.213059 276.41 0.267373 276.425 0.325729C276.439 0.384085 276.44 0.444974 276.428 0.50384C276.416 0.562706 276.39 0.618026 276.354 0.665663L274.197 4.63597ZM288.642 19.417V32.4554C288.642 34.1687 287.253 35.5586 285.539 35.5586H285.478C284.639 35.5586 283.881 35.2101 283.339 34.6495C283.051 34.3695 282.822 34.0345 282.666 33.6645C282.51 33.2945 282.43 32.8969 282.43 32.4953V32.4365V32.4386V19.417V19.3561C282.43 18.5184 282.778 17.7604 283.339 17.223C283.617 16.9393 283.95 16.7141 284.316 16.5605C284.683 16.4069 285.077 16.3281 285.474 16.3285H285.525H285.522H285.581C286.421 16.3285 287.183 16.6708 287.733 17.223C288.294 17.7625 288.642 18.5184 288.642 19.3582V19.4149V19.4128V19.417Z" fill="#A4C2FF"/>
</g>
<path d="M322.292 12.7991C321.012 12.7991 320 13.7991 320 15.0491C320 15.3481 320.059 15.6441 320.175 15.9198C320.291 16.1956 320.46 16.4455 320.674 16.655C320.887 16.8645 321.14 17.0293 321.418 17.1399C321.696 17.2505 321.993 17.3046 322.292 17.2991C323.583 17.2991 324.604 16.2991 324.604 15.0491C324.604 13.7991 323.583 12.7991 322.292 12.7991ZM338.146 12.8407C331.146 12.8407 326.771 17.6116 326.771 25.1949C326.771 32.8407 331.146 37.5907 338.146 37.5907C345.104 37.5907 349.5 32.8407 349.5 25.1949C349.5 17.6116 345.104 12.8407 338.146 12.8407ZM360.729 12.8407C355.521 12.8407 351.812 15.7157 351.812 19.9866C351.812 23.3824 353.917 25.5074 358.333 26.5282L361.437 27.2782C364.458 27.9657 365.688 28.9657 365.688 30.6949C365.688 32.6949 363.667 34.1116 360.792 34.1116C357.854 34.1116 355.646 32.6741 355.417 30.4657H351.25C351.417 34.8824 355.042 37.5907 360.542 37.5907C366.354 37.5907 370 34.7366 370 30.1949C370 26.6324 367.917 24.6116 363.083 23.5074L360.312 22.8824C357.375 22.1741 356.167 21.2366 356.167 19.6532C356.167 17.6532 358 16.3199 360.708 16.3199C363.438 16.3199 365.312 17.6741 365.521 19.9032H369.604C369.5 15.6949 366.021 12.8407 360.729 12.8407ZM338.146 16.4866C342.396 16.4866 345.125 19.8824 345.125 25.1949C345.125 30.5491 342.396 33.9449 338.146 33.9449C333.854 33.9449 331.146 30.5491 331.146 25.1949C331.146 19.8824 333.854 16.4866 338.146 16.4866ZM320.231 19.5907V37.1949H324.375V19.5907H320.229H320.231Z" fill="#0D224E"/>
<path d="M408.25 25.1949V14.2574L420.75 11.5074V25.0074L408.25 25.1949ZM443.667 6.44495V24.6741L422.833 24.9866V11.0491L443.667 6.44495ZM408.25 27.2783L420.75 27.4658V41.6533L408.25 39.2575V27.2783ZM443.667 27.7991V46.0283L422.833 42.0491V27.4866L443.667 27.7991Z" fill="#4A86FF"/>
<defs>
<clipPath id="clip0_1_241">
<rect width="50" height="50" fill="white" transform="translate(0 0.194946)"/>
</clipPath>
<clipPath id="clip1_1_241">
<rect width="50" height="50" fill="white" transform="translate(82 0.194946)"/>
</clipPath>
<clipPath id="clip2_1_241">
<rect width="42" height="50.3899" fill="white" transform="translate(246)"/>
</clipPath>
</defs>
</svg>
